<svg xmlns="http://www.w3.org/2000/svg" viewBox="0 0 900 1160" role="img" aria-labelledby="title desc">
  <title id="title">个人照片占位图</title>
  <desc id="desc">彩色抽象头像占位，等待替换为真实照片。</desc>
  <defs>
    <linearGradient id="bg" x1="0" y1="0" x2="1" y2="1">
      <stop offset="0" stop-color="#ff4fb8"/>
      <stop offset="0.32" stop-color="#ff8a2b"/>
      <stop offset="0.66" stop-color="#b7ff2a"/>
      <stop offset="1" stop-color="#16d9ff"/>
    </linearGradient>
    <radialGradient id="halo" cx="50%" cy="44%" r="48%">
      <stop offset="0" stop-color="#ffffff" stop-opacity="0.96"/>
      <stop offset="1" stop-color="#ffffff" stop-opacity="0"/>
    </radialGradient>
    <pattern id="dots" width="42" height="42" patternUnits="userSpaceOnUse">
      <circle cx="8" cy="8" r="4" fill="#130f23" opacity="0.22"/>
    </pattern>
  </defs>
  <rect width="900" height="1160" fill="url(#bg)"/>
  <rect width="900" height="1160" fill="url(#dots)"/>
  <circle cx="450" cy="410" r="300" fill="url(#halo)"/>
  <path d="M158 1015c41-194 153-299 292-299s251 105 292 299" fill="#130f23"/>
  <circle cx="450" cy="446" r="190" fill="#fffaf0"/>
  <path d="M261 424c8-141 86-226 204-226 113 0 185 75 178 207-57-73-135-93-234-68-59 15-99 43-148 87Z" fill="#130f23"/>
  <circle cx="383" cy="456" r="18" fill="#130f23"/>
  <circle cx="523" cy="456" r="18" fill="#130f23"/>
  <path d="M393 545c42 34 78 34 120 0" fill="none" stroke="#130f23" stroke-width="22" stroke-linecap="round"/>
  <path d="M210 676c111 69 300 79 480 0" fill="none" stroke="#16d9ff" stroke-width="26" stroke-linecap="round" opacity="0.86"/>
  <g font-family="Inter, Arial, sans-serif" font-weight="900" fill="#130f23">
    <text x="450" y="105" font-size="54" text-anchor="middle">DROP PHOTO</text>
    <text x="450" y="960" font-size="64" text-anchor="middle" fill="#fffaf0">王鑫溢</text>
  </g>
</svg>
